<svg width="70" height="65" fill="none" xmlns="http://www.w3.org/2000/svg"><path d="M69.943 9.698c-.137-.383-.501-.663-.941-.721l-4.18-.552-1.87-3.44c-.391-.725-1.7-.725-2.091 0l-1.87 3.44-4.18.552c-.44.058-.803.337-.942.72a.994.994 0 0 0 .295 1.087l3.025 2.678-.714 3.781c-.075.398.105.8.463 1.037.363.24.837.269 1.23.08l3.738-1.786 3.738 1.786a1.263 1.263 0 0 0 1.23-.08c.36-.238.539-.64.463-1.037l-.714-3.781 3.025-2.678a.997.997 0 0 0 .295-1.086Zm-5.387 2.636c-.275.243-.4.595-.335.938l.417 2.214-2.188-1.045a1.264 1.264 0 0 0-1.087 0l-2.19 1.045.418-2.214a1.002 1.002 0 0 0-.334-.938l-1.773-1.568 2.448-.323c.38-.05.708-.268.879-.58l1.094-2.014 1.094 2.014c.17.312.498.53.879.58l2.448.323-1.77 1.568ZM57.167 41.486h-2.333v2.119h2.333v-2.12ZM57.167 45.724h-2.333v2.12h2.333v-2.12ZM59.5 43.605h-2.333v2.12H59.5v-2.12ZM54.834 43.605H52.5v2.12h2.334v-2.12ZM49 53.143h-2.333v2.12H49v-2.12ZM49 57.382h-2.333v2.12H49v-2.12ZM51.334 55.262H49v2.12h2.334v-2.12ZM46.667 55.262h-2.334v2.12h2.334v-2.12ZM35 48.904h-2.333v2.12H35v-2.12ZM35 53.143h-2.333v2.12H35v-2.12ZM37.333 51.023H35v2.12h2.333v-2.12ZM32.667 51.023h-2.334v2.12h2.334v-2.12ZM12.833 12.873H10.5v2.12h2.333v-2.12ZM12.833 17.112H10.5v2.12h2.333v-2.12ZM15.166 14.992h-2.333v2.12h2.333v-2.12ZM10.5 14.992H8.166v2.12H10.5v-2.12Z" fill="#2196F3"/><path d="M54.064 28.843c-.63-.77-1.552-1.266-2.6-1.4a4.18 4.18 0 0 0-2.93.7l-2.739 1.906h-.001l-4.151 2.817-2.97-1.075c5.296-2.159 8.998-6.97 8.998-12.558 0-7.596-6.83-13.776-15.227-13.776s-15.228 6.18-15.228 13.776c0 2.753.907 5.314 2.45 7.468l-6.046-.048h-.01c-.019 0-.034.009-.051.01a1.241 1.241 0 0 0-.34.061c-.028.01-.057.015-.084.027-.014.005-.028.006-.042.012l-7.072 3.172-.003.001-4.141 1.81a.94.94 0 0 0-.138.07c-1.651.998-2.213 2.958-1.309 4.56.482.852 1.302 1.48 2.31 1.767.389.11.785.164 1.18.164.633 0 1.26-.14 1.836-.42l3.036-1.466 4.952-2.323 2.968-.016-11.904 10.76c0 .002-.002.002-.003.003l-2.928 2.65c-.692.625-1.073 1.454-1.073 2.34 0 .883.38 1.715 1.073 2.341.71.642 1.645.965 2.579.965.936 0 1.869-.323 2.582-.965l2.875-2.6 3.808-2.583 1.97 1.782-3.853 3.486-.004.002-2.928 2.65c-.692.625-1.073 1.454-1.073 2.34 0 .883.38 1.715 1.073 2.341.71.642 1.646.965 2.58.965.935 0 1.87-.322 2.582-.965l2.93-2.649 4.686-4.239.002-.003 2.21-1.987-.01-.008c.015-.012.035-.017.049-.03l11.3-11.243 7.593.981a1.251 1.251 0 0 0 .574-.066c.039-.012.072-.029.109-.046.042-.019.086-.03.126-.054l7.029-4.239c.026-.016.04-.041.064-.058.028-.02.063-.029.089-.051l2.78-2.366c1.448-1.232 1.648-3.25.465-4.693ZM4.66 36.017c-.379.185-.81.222-1.221.103a1.536 1.536 0 0 1-.934-.711c-.352-.623-.148-1.382.47-1.792l2.873-1.256.692 1.837.29.771-2.17 1.048Zm7.65-3.631-3.387 1.59-.558-1.484-.402-1.067 4.434-1.988-.087 2.949ZM45.34 19.23c0 1.825-.48 3.546-1.31 5.086l-9.147-3.774c-.096-1.14-.746-2.136-1.724-2.758l3.203-9.657c5.2 1.503 8.978 5.91 8.978 11.103Zm-25.788 0c0-6.427 5.784-11.657 12.894-11.657.553 0 1.094.042 1.63.104l-3.133 9.445c-.042-.001-.081-.012-.125-.012-2.258 0-4.096 1.664-4.096 3.71 0 2.045 1.838 3.709 4.096 3.709 1.52 0 2.832-.762 3.54-1.877l8.45 3.487c-2.352 2.873-6.114 4.748-10.362 4.748-7.11 0-12.894-5.23-12.894-11.657Zm13.03 1.59c0 .876-.792 1.59-1.764 1.59-.971 0-1.762-.714-1.762-1.59 0-.877.79-1.59 1.762-1.59s1.763.713 1.763 1.59ZM5.391 50.673a1.428 1.428 0 0 1-1.87.002 1.128 1.128 0 0 1-.384-.84c0-.317.136-.614.385-.838l2.104-1.904 1.862 1.684-2.097 1.896Zm7.03 7.419a1.428 1.428 0 0 1-1.87 0 1.128 1.128 0 0 1-.385-.84c0-.315.136-.613.385-.837l2.106-1.905.88.796.983.888-2.099 1.898Zm7.616-6.893-.003.002-3.86 3.497-.882-.795-.982-.889 3.857-3.487v-.001l.004-.002c.087-.08.142-.175.196-.27.015-.027.044-.05.057-.079.036-.081.042-.17.056-.255.007-.05.03-.095.03-.145 0-.07-.028-.14-.044-.21-.014-.063-.014-.128-.041-.189-.044-.1-.12-.188-.2-.273-.022-.024-.03-.053-.054-.076h-.002s0-.003-.002-.004l-3.515-3.18c-.037-.033-.085-.047-.127-.076a1.14 1.14 0 0 0-.19-.114 1.178 1.178 0 0 0-.204-.065 1.23 1.23 0 0 0-.226-.039 1.248 1.248 0 0 0-.209.01 1.274 1.274 0 0 0-.227.04 1.125 1.125 0 0 0-.206.089c-.044.022-.093.03-.133.057l-3.88 2.63-1.97-1.782 5.248-4.741 9.538 8.521-2.029 1.826Zm14.917-13.942c-.034-.004-.066.008-.1.006a1.261 1.261 0 0 0-.252.013 1.132 1.132 0 0 0-.404.136 1.121 1.121 0 0 0-.181.122c-.028.022-.062.033-.088.058L23.653 47.816l-9.468-8.458 6.197-5.6a.993.993 0 0 0 .004-1.499 1.231 1.231 0 0 0-.834-.31v-.001l-4.854.026.061-3.194 6.79.053c2.768 2.571 6.627 4.175 10.897 4.175.957 0 1.89-.09 2.799-.244.087.063.174.128.283.168L40.8 34.84l.333 1.507.39 1.759-6.569-.849Zm8.84.354-.685-3.095 3.164-2.146.828.998 1.242 1.498-4.55 2.745Zm8.21-5.625-1.832 1.56-2.037-2.456 1.818-1.267c.34-.237.768-.334 1.188-.284.422.054.796.254 1.05.565.474.58.393 1.388-.187 1.882Z" fill="#212121"/><path d="m29.755 37.555-4.688-4.239a1.25 1.25 0 0 0-1.646 0l-4.687 4.239c-.22.2-.343.47-.343.751 0 .282.123.552.343.752l4.686 4.239c.228.205.527.308.824.308.298 0 .596-.103.823-.308l4.688-4.24c.219-.199.344-.469.344-.75 0-.283-.124-.553-.345-.752Zm-5.51 3.495-3.034-2.744 3.033-2.743 3.035 2.743-3.035 2.744ZM37.547 10.784l-.564 2.058c.156.035 3.801.897 3.801 4.27h2.334c0-4.008-3.644-5.893-5.571-6.328ZM43.118 19.231h-2.334v2.12h2.334v-2.12Z" fill="#212121"/></svg>